<svg xmlns="http://www.w3.org/2000/svg" width="42.829" height="44.666" viewBox="0 0 42.829 44.666"><defs><style>.a{fill:none;stroke:#fff;stroke-linecap:round;stroke-linejoin:round;stroke-width:2px;}</style></defs><g transform="translate(0.01 0.5)"><path class="a" d="M41.819,9.993h0A2.791,2.791,0,0,0,39.037,7.21H33.472C28.6,7.21,26.849,3.5,21.414,3.5c-5.454,0-7.188,3.71-12.058,3.71H3.773A2.779,2.779,0,0,0,.99,9.993h0a2.775,2.775,0,0,0,2.783,2.764H9.338c4.869,0,6.6,3.71,12.058,3.71,5.435,0,7.188-3.71,12.058-3.71H39a2.8,2.8,0,0,0,2.764-2.783Z" transform="translate(0 2.565)"/><path class="a" d="M4.864,2.509H4.845A1.837,1.837,0,0,0,2.99,4.364v3.71H6.7V4.345A1.849,1.849,0,0,0,4.845,2.49H4.826Z" transform="translate(1.71 1.702)"/><path class="a" d="M8,9.186v4.322H8a1.833,1.833,0,0,0,1.855,1.836h11.13l-.019,0a1.86,1.86,0,0,0,1.855-1.855V9.13" transform="translate(5.994 7.379)"/><path class="a" d="M10.582,24.494H6.854A1.864,1.864,0,0,1,5,22.62H5a12.59,12.59,0,0,1,5.547-11.13" transform="translate(3.412 9.397)"/><path class="a" d="M16.017,24.485h3.692a1.86,1.86,0,0,0,1.855-1.855h-.019A12.647,12.647,0,0,0,15.98,11.5" transform="translate(12.817 9.405)"/><path class="a" d="M1,.5H4.71" transform="translate(0.009)"/><path class="a" d="M5,.5H8.71" transform="translate(3.429)"/><path class="a" d="M4,3.355V1.5" transform="translate(2.574 0.855)"/><path class="a" d="M20.864,2.517h-.019A1.833,1.833,0,0,1,22.7,4.354v3.71H18.99V4.335A1.837,1.837,0,0,1,20.845,2.48Z" transform="translate(15.391 1.693)"/><path class="a" d="M24.71.5H21" transform="translate(17.109)"/><path class="a" d="M20.71.5H17" transform="translate(13.689)"/><path class="a" d="M20,3.355V1.5" transform="translate(16.254 0.855)"/><rect class="a" width="14.84" height="14.84" rx="1" transform="translate(13.994 28.326)"/><path class="a" d="M8.336,25.591l6.789-5.1,6.789,5.083" transform="translate(6.281 17.092)"/><path class="a" d="M8.336,15.761l6.789,5.083,6.789-5.1" transform="translate(6.281 13.033)"/></g></svg>